PathFileType	4	(X/Y/Z)	/Users/itak/Documents/Research/Walk-IL/dataset/trc/00084_00006.trc
DataRate	CameraRate	NumFrames	NumMarkers	Units	OrigDataRate	OrigDataStartFrame	OrigNumFrames
100.000000	100.000000	4	54	mm	100.000000	363	484
Frame#	Time	RPSI			LPSI			L3			STRN			T10			C7			CLAV			RBAK			LBAK			LSHO			LUPA			LAEL			LAOL			LWTS			LWPS			LFRA			LIFD			LHPS			LHTS			RSHO			RUPA			RAEL			RAOL			RWTS			RWPS			RFRA			RIFD			RHTS			RHPS			RBHD			LFHD			RFHD			LBHD			LHIP			RHIP			RASI			LASI			LKNE			LTHI			LANK			LTIP			LTOE			LMT1			LMT5			LHEE			RKNE			RTHI			RANK			RTIP			RTOE			RMT1			RMT5			RHEE			*53			
		X1	Y1	Z1	X2	Y2	Z2	X3	Y3	Z3	X4	Y4	Z4	X5	Y5	Z5	X6	Y6	Z6	X7	Y7	Z7	X8	Y8	Z8	X9	Y9	Z9	X10	Y10	Z10	X11	Y11	Z11	X12	Y12	Z12	X13	Y13	Z13	X14	Y14	Z14	X15	Y15	Z15	X16	Y16	Z16	X17	Y17	Z17	X18	Y18	Z18	X19	Y19	Z19	X20	Y20	Z20	X21	Y21	Z21	X22	Y22	Z22	X23	Y23	Z23	X24	Y24	Z24	X25	Y25	Z25	X26	Y26	Z26	X27	Y27	Z27	X28	Y28	Z28	X29	Y29	Z29	X30	Y30	Z30	X31	Y31	Z31	X32	Y32	Z32	X33	Y33	Z33	X34	Y34	Z34	X35	Y35	Z35	X36	Y36	Z36	X37	Y37	Z37	X38	Y38	Z38	X39	Y39	Z39	X40	Y40	Z40	X41	Y41	Z41	X42	Y42	Z42	X43	Y43	Z43	X44	Y44	Z44	X45	Y45	Z45	X46	Y46	Z46	X47	Y47	Z47	X48	Y48	Z48	X49	Y49	Z49	X50	Y50	Z50	X51	Y51	Z51	X52	Y52	Z52	X53	Y53	Z53	X54	Y54	Z54	

364	3.63	487.8900756835938	998.115966796875	-245.5433654785156	315.5952453613281	990.8908081054688	-266.9029846191406	390.8210754394531	1050.65771484375	-258.9141540527344	457.2518615722656	1258.278198242188	-492.2587890625	374.8269348144531	1180.7080078125	-237.6062316894531	393.708740234375	1451.066650390625	-281.9609375	450.2370910644531	1371.265380859375	-456.8743286132812	443.4551696777344	1306.376953125	-208.3035736083984	290.2512512207031	1416.093872070312	-293.9356079101562	252.9905242919922	1427.649047851562	-414.6515502929688	172.3365173339844	1301.896484375	-429.0368347167969	159.8340759277344	1087.4814453125	-461.0071716308594	216.6044464111328	1070.483154296875	-369.5382385253906	242.9834442138672	842.8067626953125	-519.3206787109375	162.0866241455078	838.0817260742188	-490.6563110351562	156.4672088623047	979.1112060546875	-483.5810546875	247.7185516357422	654.6137084960938	-512.9744873046875	172.6200408935547	756.2676391601562	-515.5643920898438	240.7967529296875	757.5027465820312	-537.8558959960938	578.8945922851562	1411.732055664062	-289.8604125976562	632.2764282226562	1342.4345703125	-259.9219360351562	651.3742065429688	1084.331665039062	-211.6452178955078	567.9290771484375	1058.9755859375	-262.9216918945312	663.2011108398438	826.3843383789062	-346.9411010742188	686.5726928710938	814.5458374023438	-262.9059753417969	663.973876953125	1003.375122070312	-217.3564147949219	641.7714233398438	637.9102172851562	-342.7476501464844	667.6485595703125	722.8347778320312	-362.1272583007812	700.68994140625	724.4614868164062	-292.4836120605469	365.9768676757812	1634.796264648438	-317.5169067382812	510.7296752929688	1669.997680664062	-473.8414306640625	385.434814453125	1674.402709960938	-490.65966796875	502.37451171875	1622.691528320312	-308.4754638671875	237.5624694824219	930.5994873046875	-381.6185913085938	575.4008178710938	931.319091796875	-305.8248596191406	573.2655639648438	953.8883056640625	-430.0005798339844	310.4254150390625	942.087646484375	-483.2973327636719	321.8721313476562	454.3841247558594	-400.4811706542969	275.2129211425781	601.995361328125	-396.7694702148438	212.9149169921875	101.7678756713867	-79.44190979003906	251.9346618652344	270.2744750976562	-231.9074401855469	339.4916076660156	37.86653900146484	-203.2076721191406	349.0586853027344	49.67261505126953	-143.9582672119141	239.6864013671875	39.6092414855957	-164.6537475585938	248.3787994384766	150.7138366699219	-7.807791233062744	591.9589233398438	520.5028686523438	-515.2991943359375	604.8887329101562	778.2581176757812	-432.6365966796875	609.8784790039062	32.04421234130859	-535.7511596679688	604.4022827148438	395.0268859863281	-529.5162963867188	585.7767944335938	55.99553680419922	-747.9163208007812	543.1739501953125	51.64712524414062	-693.7236938476562	632.9622192382812	45.66581726074219	-653.4891967773438	549.1074829101562	33.37363052368164	-495.6318664550781	nan	nan	nan	
365	3.64	492.6353149414062	999.691650390625	-253.1458892822266	320.5206604003906	992.0127563476562	-273.5707397460938	395.7848205566406	1052.371459960938	-265.9258117675781	461.3803100585938	1259.955444335938	-499.7583923339844	380.2813720703125	1182.40966796875	-244.7585296630859	399.0442810058594	1452.665161132812	-289.1685485839844	454.5409545898438	1372.908203125	-464.2952575683594	449.3931579589844	1307.98681640625	-215.7955017089844	295.6637573242188	1417.93310546875	-300.493896484375	257.7436218261719	1429.666748046875	-420.9776000976562	176.6340484619141	1304.156616210938	-434.5008544921875	163.0323944091797	1089.839111328125	-464.67724609375	221.6085662841797	1073.028930664062	-374.0882568359375	241.5087738037109	843.5884399414062	-522.8569946289062	161.3036956787109	840.4340209960938	-492.210693359375	157.83984375	981.4771728515625	-486.3282470703125	243.1066436767578	655.2212524414062	-514.6006469726562	169.7289428710938	758.198974609375	-516.5922241210938	237.3545074462891	757.9918823242188	-540.3494262695312	584.2728271484375	1413.49853515625	-298.1670532226562	637.999267578125	1344.252807617188	-268.6942138671875	657.6156616210938	1086.072387695312	-221.0670623779297	573.7612915039062	1060.69921875	-271.9332275390625	668.9126586914062	828.2648315429688	-356.7626342773438	692.91015625	816.5262451171875	-272.97509765625	670.2163696289062	1005.142211914062	-227.0094451904297	647.6598510742188	639.6396484375	-352.1313171386719	673.3844604492188	724.6961669921875	-371.9639282226562	706.910400390625	726.4440307617188	-302.5325927734375	370.74365234375	1636.142578125	-324.2281494140625	514.9481811523438	1671.67431640625	-480.9932250976562	389.5593566894531	1675.94921875	-497.3833923339844	507.1836547851562	1624.212036132812	-315.6460266113281	242.1969604492188	931.8406372070312	-388.313720703125	580.1988525390625	933.0673828125	-313.5643615722656	577.8493041992188	955.7608642578125	-437.7122192382812	314.8416137695312	943.6857299804688	-490.0723876953125	324.9131164550781	454.9700927734375	-414.3336181640625	279.1822509765625	602.8847045898438	-408.1932067871094	215.3954315185547	108.6812057495117	-83.77944946289062	254.4800872802734	274.7947692871094	-240.876220703125	339.0243530273438	37.39365386962891	-204.2564544677734	350.0477600097656	51.39452743530273	-146.9784088134766	240.4355926513672	40.85342407226562	-165.50390625	253.3492584228516	160.4555206298828	-15.40574169158936	595.0846557617188	521.1437377929688	-521.1815795898438	609.2545166015625	779.6365966796875	-440.1121215820312	610.1572875976562	32.03314208984375	-536.1049194335938	606.824951171875	395.2377624511719	-534.1751098632812	586.3941040039062	53.69818878173828	-749.0792236328125	543.8468627929688	50.65908050537109	-694.4244384765625	633.4307250976562	44.7630729675293	-654.0972290039062	549.3582153320312	33.71043014526367	-495.9075317382812	nan	nan	nan	
366	3.65	497.3747253417969	1001.103698730469	-260.626708984375	325.4808044433594	992.9320068359375	-279.9850769042969	400.7994384765625	1054.050048828125	-272.6835632324219	465.2872009277344	1261.529663085938	-507.1032104492188	385.7123107910156	1184.07177734375	-251.7052001953125	404.2586669921875	1454.216186523438	-296.2524719238281	458.6334228515625	1374.46337890625	-471.5972595214844	455.2514343261719	1309.5732421875	-223.1436614990234	300.9390258789062	1419.69970703125	-306.8742370605469	262.3233947753906	1431.60107421875	-427.0767211914062	180.7020416259766	1306.375366210938	-439.7557373046875	165.9458770751953	1092.16162109375	-468.3161010742188	226.2398834228516	1075.485473632812	-378.6074523925781	240.149169921875	844.6072998046875	-526.5182495117188	160.73046875	842.7904052734375	-493.9532470703125	159.1018676757812	983.8419799804688	-489.1294860839844	239.0806121826172	656.1055297851562	-516.3617553710938	167.2457427978516	760.216064453125	-517.781005859375	234.2566528320312	758.7199096679688	-542.9988403320312	589.5013427734375	1415.207397460938	-306.437255859375	643.5986938476562	1346.037719726562	-277.4315185546875	663.8994140625	1087.7958984375	-230.3482360839844	579.5844116210938	1062.356567382812	-280.7188110351562	674.5607299804688	830.1324462890625	-366.5679931640625	699.2686767578125	818.4801025390625	-283.1046752929688	676.5245971679688	1006.869262695312	-236.5439910888672	653.5524291992188	641.4378051757812	-361.8423767089844	679.0902709960938	726.6392211914062	-381.9640502929688	713.1256103515625	728.4110717773438	-312.7796630859375	375.3828735351562	1637.434936523438	-330.878662109375	519.0855102539062	1673.25830078125	-488.0648498535156	393.6077270507812	1677.439453125	-504.0422668457031	511.8752136230469	1625.635620117188	-322.7398071289062	246.7798156738281	932.9743041992188	-394.8113403320312	584.9751586914062	934.61328125	-321.1624145507812	582.4059448242188	957.5222778320312	-445.3023681640625	319.1424560546875	945.2014770507812	-496.6474304199219	327.8804016113281	455.6795959472656	-428.4797058105469	283.095703125	603.8308715820312	-419.7689514160156	218.1923980712891	116.0573577880859	-88.68073272705078	257.2341613769531	279.4266967773438	-250.3460998535156	338.6669921875	36.64189529418945	-206.1431579589844	351.2493896484375	53.42617416381836	-150.7647247314453	241.3509216308594	42.77938842773438	-166.7415161132812	258.8150939941406	170.2437591552734	-23.62577438354492	597.975830078125	521.5166625976562	-526.56005859375	613.5374755859375	780.6649780273438	-447.1804504394531	610.2817993164062	32.09476089477539	-536.42724609375	609.0095825195312	395.2712097167969	-538.4622802734375	586.8377685546875	51.52890014648438	-750.2155151367188	544.3175659179688	49.69728469848633	-695.1171875	633.7045288085938	44.020751953125	-654.6896362304688	549.4583740234375	33.99125289916992	-496.1746826171875	nan	nan	nan	
367	3.66	502.1214904785156	1002.356872558594	-267.9813537597656	330.4434509277344	993.6396484375	-286.18115234375	405.8655395507812	1055.632568359375	-279.2435913085938	468.9710998535156	1262.978271484375	-514.2876586914062	391.1206359863281	1185.644165039062	-258.4351196289062	409.3489379882812	1455.685424804688	-303.1858825683594	462.5138854980469	1375.90771484375	-478.7705688476562	461.0250549316406	1311.091796875	-230.3314208984375	306.076416015625	1421.342407226562	-313.0498352050781	266.712890625	1433.393432617188	-432.9313659667969	184.5380859375	1308.483520507812	-444.7745361328125	168.5624694824219	1094.380126953125	-471.9399108886719	230.4396667480469	1077.780151367188	-383.0857238769531	238.946044921875	845.7725830078125	-530.2905883789062	160.3652038574219	845.0541381835938	-495.9175720214844	160.2574920654297	986.1262817382812	-492.0111389160156	235.7180786132812	657.17578125	-518.320556640625	165.2148132324219	762.2132568359375	-519.1882934570312	231.5773620605469	759.6109619140625	-545.8289184570312	594.5755615234375	1416.812622070312	-314.6492919921875	649.0615234375	1347.737915039062	-286.1113891601562	670.229248046875	1089.44482421875	-239.4841461181641	585.415283203125	1063.889282226562	-289.2709655761719	680.1358642578125	831.94677734375	-376.3504943847656	705.6364135742188	820.3404541015625	-293.2811279296875	682.9043579101562	1008.504516601562	-245.9533386230469	659.4574584960938	643.2611083984375	-371.9337463378906	684.7611083984375	728.630859375	-392.1401062011719	719.3174438476562	730.2991943359375	-323.2246704101562	379.8894348144531	1638.662231445312	-337.4555053710938	523.1254272460938	1674.72607421875	-495.0504760742188	397.5686645507812	1678.855834960938	-510.6280822753906	516.4471435546875	1626.948974609375	-329.7562561035156	251.3063354492188	933.9629516601562	-401.1270446777344	589.715087890625	935.9407958984375	-328.6151428222656	586.9017333984375	959.1299438476562	-452.768310546875	323.3159790039062	946.6170654296875	-503.0457763671875	330.77978515625	456.5083618164062	-442.76904296875	286.9439086914062	604.8231201171875	-431.3727722167969	221.4120330810547	123.8181915283203	-94.13894653320312	260.2520751953125	284.0838623046875	-260.2298583984375	338.3369750976562	35.64498519897461	-209.0710601806641	352.649169921875	55.7969970703125	-155.4559936523438	242.4185180664062	45.5267448425293	-168.5258483886719	264.7632141113281	179.9228668212891	-32.36160659790039	600.6242065429688	521.6295166015625	-531.4705810546875	617.66162109375	781.298583984375	-453.8241271972656	610.2598266601562	32.22754669189453	-536.7352294921875	610.9769287109375	395.1271362304688	-542.3887939453125	587.1254272460938	49.43296432495117	-751.3357543945312	544.5963745117188	48.72331237792969	-695.8224487304688	633.8069458007812	43.39292907714844	-655.2774658203125	549.4091186523438	34.23790740966797	-496.4446716308594	nan	nan	nan	
